<?xml version="1.0" standalone="no"?>
<!DOCTYPE svg PUBLIC "-//W3C//DTD SVG 20010904//EN"
 "http://www.w3.org/TR/2001/REC-SVG-20010904/DTD/svg10.dtd">
<svg version="1.0" xmlns="http://www.w3.org/2000/svg"
 width="225.000000pt" height="225.000000pt" viewBox="0 0 225.000000 225.000000"
 preserveAspectRatio="xMidYMid meet">
<metadata>
Created by potrace 1.14, written by Peter Selinger 2001-2017
</metadata>
<g transform="translate(0.000000,225.000000) scale(0.100000,-0.100000)"
fill="#000000" stroke="none">
<path d="M911 2221 c-6 -11 -7 -22 -2 -25 5 -3 11 4 14 16 8 30 1 35 -12 9z"/>
<path d="M952 2210 c0 -14 2 -19 5 -12 2 6 2 18 0 25 -3 6 -5 1 -5 -13z"/>
<path d="M876 2138 c-20 -32 -30 -75 -18 -82 10 -6 46 94 37 102 -2 2 -10 -7
-19 -20z"/>
<path d="M935 2109 c-8 -34 1 -51 15 -29 12 19 13 47 1 54 -5 4 -12 -8 -16
-25z"/>
<path d="M920 1963 c0 -41 3 -54 10 -43 13 20 13 87 0 95 -6 4 -10 -16 -10
-52z"/>
<path d="M832 1988 c-17 -17 -15 -73 3 -88 13 -11 15 -8 15 21 0 19 3 44 6 57
7 24 -5 29 -24 10z"/>
<path d="M1474 1857 c-2 -7 13 -47 34 -88 46 -87 57 -119 43 -119 -5 0 -54 45
-107 100 -55 57 -105 100 -116 100 -38 0 -31 -30 18 -83 98 -106 141 -165 78
-106 -27 25 -80 72 -117 103 -55 46 -71 55 -83 45 -8 -6 -14 -17 -14 -23 0
-11 141 -156 200 -206 43 -37 -2 -15 -110 54 -79 50 -106 63 -117 55 -7 -6
-13 -17 -13 -24 0 -12 73 -71 213 -170 45 -32 58 -48 67 -81 7 -23 9 -47 6
-52 -3 -6 -25 -13 -48 -17 -42 -7 -108 -59 -108 -84 0 -21 31 -24 63 -6 29 15
47 16 187 6 139 -9 159 -8 189 7 68 33 93 101 54 145 -10 12 -39 62 -63 110
-24 49 -55 101 -70 115 -14 15 -43 59 -64 97 -67 121 -107 161 -122 122z"/>
<path d="M827 1832 c-10 -10 -17 -27 -17 -36 0 -31 31 -84 52 -89 18 -5 20 -2
14 26 -4 18 -9 51 -13 75 -6 47 -12 51 -36 24z"/>
<path d="M924 1833 c2 -10 8 -37 11 -60 8 -50 23 -63 42 -38 20 28 16 72 -9
95 -27 25 -51 26 -44 3z"/>
<path d="M982 1643 c12 -21 34 -55 49 -75 23 -33 28 -36 39 -23 15 18 7 77
-15 111 -12 19 -24 24 -55 24 l-39 0 21 -37z"/>
<path d="M891 1612 c-25 -48 -6 -90 48 -107 18 -6 23 -4 19 6 -3 8 -14 34 -23
59 -24 59 -31 66 -44 42z"/>
<path d="M1143 1413 c29 -44 59 -99 66 -121 8 -23 17 -39 21 -37 5 3 13 27 20
54 10 44 9 55 -8 94 -23 53 -55 77 -111 84 l-40 6 52 -80z"/>
<path d="M971 1422 c-24 -46 -5 -112 45 -151 15 -12 30 -21 35 -21 9 0 -30
121 -54 165 -14 28 -15 28 -26 7z"/>
<path d="M724 1260 c-25 -39 -56 -95 -70 -125 -13 -30 -30 -55 -37 -55 -12 0
-12 12 0 78 19 101 21 144 6 149 -20 7 -42 -40 -67 -138 -13 -52 -31 -108 -41
-126 -9 -18 -25 -72 -36 -120 -11 -48 -25 -101 -31 -118 -21 -62 -21 -72 9
-105 47 -52 91 -52 258 5 117 40 145 46 186 41 59 -8 71 6 35 43 -22 21 -38
27 -94 31 -65 5 -67 6 -70 34 -6 47 5 72 61 137 81 95 146 183 147 195 0 6 -7
17 -15 24 -16 13 -15 14 -139 -118 -62 -67 -82 -77 -40 -21 40 54 124 205 124
223 0 21 -26 32 -44 17 -7 -6 -46 -61 -87 -121 -40 -61 -74 -110 -76 -110 -2
0 21 48 52 107 60 116 66 143 35 143 -14 0 -34 -21 -66 -70z"/>
<path d="M1254 1148 c3 -13 6 -74 6 -136 l0 -112 49 25 c27 13 57 35 65 47 36
51 8 128 -63 173 -50 31 -65 32 -57 3z"/>
<path d="M1036 1123 c-50 -77 -41 -157 23 -202 l31 -22 0 69 c0 93 -11 192
-21 192 -5 0 -20 -17 -33 -37z"/>
<path d="M1230 817 c0 -10 -21 -61 -47 -115 -27 -53 -49 -100 -51 -104 -7 -15
32 -8 73 12 54 26 80 79 70 139 -7 45 -44 101 -45 68z"/>
<path d="M1029 791 c-23 -24 -29 -38 -29 -73 1 -24 7 -54 14 -67 12 -22 14
-20 31 45 9 38 21 81 26 97 11 36 -4 35 -42 -2z"/>
<path d="M956 535 c-16 -17 -28 -48 -35 -87 -9 -53 -8 -81 2 -67 6 8 77 168
77 174 0 13 -23 3 -44 -20z"/>
<path d="M1082 515 c-6 -14 -32 -56 -57 -94 -25 -37 -45 -71 -45 -75 0 -9 50
-7 91 4 42 12 61 45 63 110 0 28 -6 46 -20 60 l-20 21 -12 -26z"/>
<path d="M837 304 c-36 -34 -50 -69 -37 -95 6 -10 14 -19 18 -19 4 0 24 32 45
70 32 60 35 70 20 70 -10 0 -31 -12 -46 -26z"/>
<path d="M895 234 c-52 -72 -51 -84 12 -84 23 0 38 8 57 31 14 17 26 35 26 41
0 15 -31 78 -39 78 -4 0 -29 -30 -56 -66z"/>
<path d="M740 140 c-27 -27 -27 -90 0 -115 17 -16 23 -17 45 -5 28 15 58 71
49 94 -9 24 -16 20 -54 -33 -19 -27 -37 -48 -39 -46 -2 2 11 28 28 58 17 30
31 57 31 61 0 14 -41 5 -60 -14z"/>
</g>
</svg>
